<svg width="135" height="39" viewBox="0 0 135 39" fill="none" xmlns="http://www.w3.org/2000/svg">
<path fill-rule="evenodd" clip-rule="evenodd" d="M21.7961 38.6883V21.7177H27.1989V38.6883H21.7961ZM24.503 19.74C23.7443 19.74 23.0925 19.4895 22.5474 18.9886C22.0023 18.4804 21.7298 17.8691 21.7298 17.1546C21.7298 16.4475 22.0023 15.8435 22.5474 15.3426C23.0925 14.8344 23.7443 14.5803 24.503 14.5803C25.2691 14.5803 25.9209 14.8344 26.4586 15.3426C27.0037 15.8435 27.2762 16.4475 27.2762 17.1546C27.2762 17.8691 27.0037 18.4804 26.4586 18.9886C25.9209 19.4895 25.2691 19.74 24.503 19.74ZM80.9227 38.6883V21.7177H86.3254V38.6883H80.9227ZM83.6296 19.74C82.8709 19.74 82.219 19.4895 81.674 18.9886C81.1289 18.4804 80.8564 17.8691 80.8564 17.1546C80.8564 16.4475 81.1289 15.8435 81.674 15.3426C82.219 14.8344 82.8709 14.5803 83.6296 14.5803C84.3956 14.5803 85.0475 14.8344 85.5852 15.3426C86.1302 15.8435 86.4028 16.4475 86.4028 17.1546C86.4028 17.8691 86.1302 18.4804 85.5852 18.9886C85.0475 19.4895 84.3956 19.74 83.6296 19.74ZM109.544 21.7177V38.6883H114.947V28.6451C114.947 28.0853 115.046 27.5992 115.245 27.1867C115.451 26.7742 115.735 26.4575 116.096 26.2365C116.457 26.0082 116.873 25.894 117.344 25.894C118.044 25.894 118.608 26.1224 119.035 26.579C119.462 27.0357 119.676 27.6581 119.676 28.4462V38.6883H124.868V28.5567C124.868 27.7465 125.078 27.102 125.498 26.6232C125.925 26.1371 126.511 25.894 127.255 25.894C127.947 25.894 128.511 26.1187 128.945 26.568C129.38 27.0099 129.597 27.6544 129.597 28.5015V38.6883H135V27.264C135 25.4742 134.499 24.0673 133.497 23.0435C132.496 22.0123 131.192 21.4967 129.586 21.4967C128.334 21.4967 127.248 21.8024 126.327 22.4137C125.406 23.0177 124.787 23.8243 124.471 24.8334H124.294C124.066 23.8169 123.532 23.0067 122.692 22.4027C121.852 21.7987 120.843 21.4967 119.665 21.4967C118.501 21.4967 117.499 21.795 116.659 22.3916C115.82 22.9882 115.223 23.8022 114.869 24.8334H114.682V21.7177H109.544ZM100.713 21.7177V31.3631C100.713 32.0186 100.585 32.5784 100.327 33.0425C100.076 33.4991 99.7338 33.849 99.2992 34.0921C98.872 34.3278 98.3896 34.4456 97.8519 34.4456C97.0269 34.4456 96.375 34.1805 95.8963 33.6501C95.4175 33.1198 95.1744 32.3943 95.1671 31.4736V21.7177H89.7643V32.5342C89.7717 33.8159 90.0184 34.9355 90.5046 35.893C90.9907 36.8432 91.672 37.5834 92.5485 38.1138C93.4251 38.6441 94.4415 38.9093 95.598 38.9093C96.8722 38.9093 97.9587 38.6073 98.8573 38.0033C99.7633 37.3919 100.404 36.567 100.78 35.5284H100.957V38.6883H106.105V21.7177H100.713ZM66.6065 38.6883V29.0097C66.6138 28.3615 66.7317 27.8091 66.96 27.3524C67.1957 26.8958 67.5272 26.5459 67.9544 26.3028C68.389 26.0524 68.8898 25.9272 69.457 25.9272C70.3114 25.9272 70.978 26.1923 71.4568 26.7227C71.9429 27.253 72.1823 27.9896 72.175 28.9324V38.6883H77.5777V27.8717C77.5851 26.5974 77.342 25.4852 76.8485 24.535C76.3624 23.5775 75.6774 22.8336 74.7935 22.3032C73.917 21.7655 72.8821 21.4967 71.6888 21.4967C70.4366 21.4967 69.3576 21.795 68.4516 22.3916C67.5456 22.9809 66.9048 23.7948 66.5291 24.8334H66.3413V21.7177H61.2037V38.6883H66.6065ZM47.7576 38.9756C46.6748 38.9756 45.7136 38.7951 44.8739 38.4342C44.0415 38.0659 43.3823 37.5135 42.8962 36.7769C42.4174 36.0329 42.178 35.1012 42.178 33.9816C42.178 33.0388 42.3437 32.2433 42.6752 31.5951C43.0067 30.9469 43.4633 30.4203 44.0452 30.0151C44.6271 29.61 45.2974 29.3044 46.0561 29.0981C46.8147 28.8845 47.625 28.7409 48.4868 28.6672C49.4517 28.5788 50.2288 28.4868 50.818 28.391C51.4073 28.2879 51.8345 28.1443 52.0997 27.9601C52.3722 27.7686 52.5085 27.4998 52.5085 27.1536V27.0983C52.5085 26.5312 52.3133 26.0929 51.9229 25.7835C51.5325 25.4742 51.0058 25.3195 50.3429 25.3195C49.6285 25.3195 49.0539 25.4742 48.6194 25.7835C48.1848 26.0929 47.9086 26.5201 47.7907 27.0652L42.8078 26.8884C42.9551 25.8572 43.3344 24.9365 43.9458 24.1262C44.5645 23.3087 45.4116 22.6678 46.487 22.2038C47.5697 21.7324 48.8698 21.4967 50.3871 21.4967C51.4699 21.4967 52.4679 21.6256 53.3813 21.8834C54.2946 22.1338 55.0901 22.5021 55.7678 22.9882C56.4454 23.467 56.9684 24.0563 57.3367 24.756C57.7123 25.4558 57.9002 26.2549 57.9002 27.1536V38.6883H52.8178V36.3239H52.6852C52.3832 36.8984 51.9965 37.3846 51.5251 37.7823C51.0611 38.1801 50.5123 38.4784 49.8789 38.6772C49.2528 38.8761 48.5457 38.9756 47.7576 38.9756ZM49.4259 35.44C50.0078 35.44 50.5308 35.3222 50.9948 35.0865C51.4662 34.8508 51.8419 34.5267 52.1217 34.1142C52.4016 33.6943 52.5416 33.2082 52.5416 32.6558V31.0427C52.3869 31.1237 52.1991 31.1973 51.9781 31.2636C51.7645 31.3299 51.5288 31.3925 51.271 31.4515C51.0132 31.5104 50.748 31.562 50.4755 31.6061C50.203 31.6503 49.9415 31.6909 49.6911 31.7277C49.1828 31.8087 48.7482 31.9339 48.3873 32.1033C48.0338 32.2727 47.7612 32.4937 47.5697 32.7662C47.3856 33.0314 47.2935 33.3481 47.2935 33.7164C47.2935 34.2762 47.4924 34.7034 47.8901 34.9981C48.2953 35.2927 48.8072 35.44 49.4259 35.44ZM40.2169 25.6951V21.7177H37.1564V17.6518H31.7537V21.7177H29.5108V25.6951H31.7537V33.9484C31.7389 35.0975 31.9673 36.0514 32.4387 36.81C32.9174 37.5687 33.6061 38.1285 34.5048 38.4894C35.4107 38.843 36.4972 38.9903 37.7641 38.9314C38.4123 38.9019 38.9684 38.8319 39.4324 38.7214C39.9038 38.611 40.2684 38.5189 40.5262 38.4452L39.7086 34.5451C39.5908 34.5745 39.414 34.6114 39.1783 34.6556C38.95 34.6924 38.7327 34.7108 38.5264 34.7108C38.2392 34.7108 37.9924 34.6703 37.7862 34.5893C37.5799 34.5009 37.4216 34.3572 37.3111 34.1584C37.208 33.9521 37.1564 33.6833 37.1564 33.3518V25.6951H40.2169ZM0 16.0608V20.5023H6.87223V38.6883H12.2639V20.5023H19.1251V16.0608H0Z" fill="url(#paint0_linear_525_250)"/>
<path d="M133.596 4.2521V6.40289H127.379V4.2521H133.596ZM128.791 1.77869H131.654V11.4035C131.654 11.6679 131.694 11.874 131.775 12.0218C131.856 12.1652 131.968 12.266 132.111 12.3243C132.259 12.3825 132.429 12.4117 132.622 12.4117C132.756 12.4117 132.891 12.4005 133.025 12.3781C133.16 12.3512 133.263 12.331 133.334 12.3176L133.785 14.4482C133.641 14.493 133.44 14.5445 133.18 14.6028C132.92 14.6655 132.604 14.7036 132.232 14.717C131.542 14.7439 130.937 14.6521 130.417 14.4415C129.902 14.2309 129.501 13.9038 129.214 13.4602C128.927 13.0166 128.786 12.4565 128.791 11.7799V1.77869Z" fill="#153580"/>
<path d="M119.195 8.60739V14.5758H116.331V4.25204H119.06V6.07349H119.181C119.41 5.47306 119.793 4.99809 120.33 4.64859C120.868 4.29461 121.52 4.11761 122.286 4.11761C123.003 4.11761 123.628 4.27444 124.161 4.5881C124.695 4.90176 125.109 5.34984 125.405 5.93235C125.701 6.51037 125.849 7.20042 125.849 8.00248V14.5758H122.985V8.5133C122.99 7.8815 122.828 7.38861 122.501 7.03463C122.174 6.67616 121.724 6.49693 121.15 6.49693C120.765 6.49693 120.424 6.57982 120.129 6.74561C119.838 6.9114 119.609 7.15337 119.443 7.47151C119.282 7.78516 119.199 8.16379 119.195 8.60739Z" fill="#153580"/>
<path d="M111.174 14.5759V4.25207H114.038V14.5759H111.174ZM112.613 2.92126C112.187 2.92126 111.822 2.78012 111.517 2.49783C111.217 2.21105 111.067 1.86827 111.067 1.46948C111.067 1.07517 111.217 0.736865 111.517 0.454573C111.822 0.167801 112.187 0.0244141 112.613 0.0244141C113.038 0.0244141 113.401 0.167801 113.702 0.454573C114.006 0.736865 114.159 1.07517 114.159 1.46948C114.159 1.86827 114.006 2.21105 113.702 2.49783C113.401 2.78012 113.038 2.92126 112.613 2.92126Z" fill="#153580"/>
<path d="M103.43 14.5759V4.25205H106.206V6.05334H106.313C106.501 5.41259 106.817 4.92866 107.261 4.60156C107.705 4.26998 108.215 4.10419 108.793 4.10419C108.937 4.10419 109.091 4.11315 109.257 4.13107C109.423 4.149 109.569 4.17364 109.694 4.20501V6.74563C109.56 6.7053 109.374 6.66946 109.136 6.63809C108.899 6.60672 108.681 6.59104 108.484 6.59104C108.063 6.59104 107.687 6.6829 107.355 6.86661C107.028 7.04584 106.768 7.29677 106.575 7.61939C106.387 7.94201 106.293 8.31392 106.293 8.73511V14.5759H103.43Z" fill="#153580"/>
<path d="M91.2292 14.5759V0.810791H96.6599C97.7039 0.810791 98.5934 1.01019 99.3282 1.40898C100.063 1.80329 100.623 2.35219 101.009 3.05568C101.398 3.75469 101.593 4.56124 101.593 5.47532C101.593 6.38941 101.396 7.19596 101.002 7.89496C100.608 8.59397 100.036 9.13839 99.2879 9.52822C98.5441 9.91805 97.6434 10.113 96.586 10.113H93.1245V7.7807H96.1155C96.6756 7.7807 97.1371 7.68437 97.5001 7.49169C97.8675 7.29454 98.1408 7.02345 98.3201 6.67842C98.5038 6.32892 98.5956 5.92789 98.5956 5.47532C98.5956 5.01828 98.5038 4.61949 98.3201 4.27894C98.1408 3.93392 97.8675 3.66731 97.5001 3.47912C97.1326 3.28644 96.6666 3.19011 96.102 3.19011H94.1394V14.5759H91.2292Z" fill="#153580"/>
<defs>
<linearGradient id="paint0_linear_525_250" x1="0" y1="26.7779" x2="153.231" y2="48.2493" gradientUnits="userSpaceOnUse">
<stop stop-color="#5B8BFF"/>
<stop offset="1" stop-color="#375399"/>
</linearGradient>
</defs>
</svg>
